<svg xmlns="http://www.w3.org/2000/svg" width="640" height="480" xmlns:xlink="http://www.w3.org/1999/xlink"><defs><clipPath id="a"><path fill-opacity=".67" d="M-5.25-6h40v30h-40z"/></clipPath></defs><g clip-path="url(#a)" transform="matrix(.75 0 0 .75 3.94 2.25)"><path fill="#fff" d="M-10.25-6h50v30h-50z"/><path fill="#df112d" fill-rule="evenodd" d="M-10.25-6v1.93L11.52 9l-21.77 13.07V24h3.28l21.72-13.07L36.45 24h3.3v-1.93L17.97 9 39.75-4.07V-6h-3.28L14.74 7.07-6.96-6h-3.3z"/><g transform="translate(-9.649 -6.038) scale(.204)"><path fill="#e8112d" stroke="#000" stroke-width=".125" d="M132.66 22.23c3.16 12.78 1.43 28.56-12.83 37.32-14.25-8.76-16-24.54-12.83-37.32 3.36-3.05 18.63-4.93 25.66 0z"/><path fill="#f9dd16" stroke="#000" stroke-width=".125" d="M119.8 19.67c5.24 0 10.1 1.38 12.97 3.17.56-4.4 2.56-8.8 4.92-12.14-2.47-.05-3.57 1.26-3.6 2.6-.6-1.73-3.02-1.63-3.76-.68 2.7 1.82.6 5.05-1.82 4.38-1.14-.3-1.75-1.1-1.96-2.26a1.32 1.32 0 1 0-.57-.1c-.77 1.26-2.15 1.64-3.14 1.36-1.28-.35-1.82-1.5-1.82-2.53 0-2.67 2.56-3.08 3.33-2.6-.05-1.8-2.87-3.24-3.74-1.76.97-1.73.92-4.2-.82-5.83-1.73 1.64-1.78 4.1-.8 5.84-.88-1.47-3.7-.04-3.75 1.76.77-.47 3.33-.06 3.33 2.6 0 1.03-.54 2.2-1.82 2.54-1 .28-2.37-.1-3.14-1.35a1.3 1.3 0 0 0 .56-.4 1.32 1.32 0 1 0-1.12.5c-.2 1.14-.82 1.94-1.96 2.25-2.43.67-4.5-2.56-1.82-4.38-.74-.94-3.15-1.05-3.76.7-.03-1.36-1.13-2.67-3.6-2.62 2.37 3.33 4.37 7.74 4.93 12.14 2.87-1.8 7.74-3.17 12.96-3.17z"/><g id="b" stroke="#000"><g fill="#f9dd16"><path d="M130.65 32.2c-.32.07-.32.48-.48.48.82-.02 1.22-.25 1.47-.66-.18.17-.03.48-.1.56.6-.2.9-.73.7-1.07.12.2.52.3.64.32-.43-.33-.12-1.08-.8-1.47.22 0 .66.24.78.54-.1-.68-.2-1.12-.77-1.5.05.07.37.13.5 0-.36-.22-.46-.6-.43-.84.04-.33-.18-.4-.6-.3-.38.1-1.25.15-1.76.15-1.04 0-1.96 0-2.83-.6 1.3.55 2.97-.6 2.97-1.54 0-1.05-1.3-1.9-3.9-1.34-2.62.58-5.8.34-5.8-.54 0-.87 2.28-1 3.45-.8 1.16.17 2 .3 4.2-.5-.54.22-2.3.28-3.67-.1-1.38-.4-4.78-.4-4.8 1.43-.04 1.85 3.6 1.68 6.76 1.22 1.82-.27 2.78-.1 2.78.5 0 .58-1.68.82-2.97.67-1.3-.16-2.6-.13-4.14.32-1.28.38-2.17 0-3.58.24-.68.12-2.34 0-3.16-1.35-.5.37-2.02 1.12-2.28 1.86-.36.68-.12 1.35.36 2 .6.84-.3.72-.95.75-.88.05-2.07-.1-2.7-.8-.53-.6-1.26-1.1-1.85-.65-.3.24 0 .55.23.46.23-.07.5.1.76.2-.4-.16-.85-.03-1.02.12-.24.22.05.62.33.48.24-.1.7-.2 1 .1-.32-.08-.66-.06-.82.1s-.04.44.3.42c.57-.02.72.37 1.28.3-.35.04-.54.22-.63.35.52-.24 1.1.4 1.8.26-.28.1-.7.37-.7.57.4-.47 3.12.36 3.18-.66.1.2.07.52-.14.8.35-.2 1.47-.3 1.82-1.1.03.24-.02.55-.23.63.36.12.84-.15 1.33-.87.2-.3.23-.48.2-.7.48.02.83-.1 1.2-.4.4-.34.82.26 1.48-.16.66-.43 1.23-.06 1.6-.27.36-.22.85.07 1.24-.17s1 .12 1.65-.4c1 .38 2.2 1.07 5.12.53 1.67-.3 2.2.26 2.2 1.03 0 .52-.32.57-.55.58-.93.06-1.33-.34-1.7-.22-.24.1-.4.5-.04.63-.3.15-.25.43-.1.53s.54 0 .8-.1c-.34.14-.7.42-.5.7.13.18.44.33.72-.04.3-.38.82-.7 1.15-.64zm-18.5-7.94c-.85-.34-1.14-.35-.94.33.1.3.3.7.5.9 0-.3.1-1.1.44-1.24zM114.77 24.26c.84-.34 1.13-.35.93.33-.08.3-.28.7-.5.9 0-.3-.1-1.1-.43-1.24zM113.46 23.8c1.6 0 1.8.75 1.78 1.68 0 1-.54.66-.85 1.95-.13.5-.54.54-.94.54-.4 0-.8-.03-.93-.54-.3-1.3-.85-.94-.85-1.95 0-.93.2-1.68 1.78-1.68zM109.36 27.5c-.4-.24-.67-.08-.83-.03.52.13.54.8 1.75 1.12-.27-.08-.42.07-.68-.07.5.4 1.05.85 2.23.86.65 0 .2.34-.23.14.44.46 1.32.08 1.88.92.1-.65-1.04-1.67-.5-2.4-1.64-.08-1.77-.98-2.7-1.7-.76-.57-.83-1.16-1.17-2.27-.14-.5-.73-.83-1.05-.7-.3.1-.4.34-.15.53.25.18.56.2.63.67-.32-.38-.8-.5-1.02-.28-.13.15-.08.5.22.52.5.05.14.52.7 1-.5-.57-.92-.62-1.2-.32-.14.18 0 .5.35.47.5-.06 1.06 1.18 1.8 1.5zm13.07 4.64c-.26.04-.18.47-.53.5.83 0 1.25-.2 1.64-.52-.18.1-.25.38-.27.53.44-.38 1.48-.4 2.02-.3s.62-.15.8-.5c.2-.34-.06-.54-.33-.8-.27-.28-.33-.65-.27-1.3-1.45-1.9-4.03-.98-4.06-.14.93 1.1 1.05.98 1.83 1.13.78.15 1.26.15.74.58-.17.16-.92.1-1.5.12-1.32.06-1.92-.9-2.3-.4-.33.4 0 .6.65.56-.45 0-1.04-.02-.94.4.18.7.85-.13 1.12.16-.23-.05-.58.1-.6.3 0 .2.5.5 1.07.04a1.64 1.64 0 0 1 .93-.34z"/></g><g fill="none"><path d="M123.55 29.2c-.47-.17-.9-.27-1.45-.16m-5.62-.06c-.4.83-.15 1.24-.1 1.63m-4-5.55c.26.13.4-.24.8.16-.1-.1-.25.32-.55.03m1.9-.18c-.27.13-.4-.24-.8.16.1-.1.24.32.53.03M113.73 25.2c-.1.08-.1-.05-.03.3.13.65.28.96-.25.96-.54 0-.37-.3-.25-.96.07-.35.06-.22-.03-.3"/></g><path fill="#ff0016" d="M113.46 27.7c.43 0 .68 0 .6-.6-.02-.24.3-.34.2-.73.1.48-.8.43-.8.22 0 .2-.9.25-.8-.23-.1.4.22.5.2.73-.08.6.17.6.6.6z"/><path d="M113.07 26.5l-1.03-.3m1.03.34h-1.15m1.16.06l-.98.26m1.74-.37l1.03-.3m-1.03.34H115m-1.17.06l.98.26"/><path fill="#0051ba" d="M108.13 23.4c-.3-.36-1.05-.04-1.06.42.25-.3.66.13.9.04.14-.06.28-.3.16-.45zm-.38.9c-.3-.38-1.05-.06-1.06.4.24-.3.65.13.88.04.16-.06.3-.3.17-.44zm-.2 1.18c-.34-.34-1.05.06-1 .52.2-.33.67.06.88-.06.15-.08.26-.32.12-.46zm.36 3.67c-.37-.3-1.02.18-.93.63.17-.35.67-.02.87-.16.14-.1.22-.35.07-.47zm0 .8c-.46-.16-.94.5-.7.9.05-.4.62-.24.77-.43.1-.13.1-.4-.08-.47zm.56.6c-.45-.16-.93.5-.7.9.06-.4.63-.24.78-.43.1-.13.1-.4-.08-.47zm11.74 1.16c-.45-.15-.93.5-.7.9.06-.38.63-.22.78-.42.1-.13.1-.4-.08-.47zm.6.56c-.45-.1-.86.6-.6.97.03-.4.62-.3.74-.5.1-.16.06-.43-.13-.47zm-.42-1.32c-.4-.24-1 .33-.85.76.13-.37.67-.1.85-.28.12-.12.17-.38 0-.48zm8.35.94c-.46-.1-.87.6-.6.97.02-.4.6-.3.73-.5.1-.15.06-.42-.13-.47zm.02-.73c-.42-.23-.98.36-.82.8.12-.4.67-.15.84-.33.12-.12.15-.38-.02-.47zm.32 1.4c-.47-.1-.84.62-.55 1 0-.4.6-.34.7-.56.08-.16.04-.42-.15-.46zm-15.58-5.2c.28 0 .4.08.4.6 0 1.14 0 1.62-.37 1.62s-.34-.46-.34-1.28c0-.44 0-.66-.1-.62 0-.3.13-.33.4-.33z"/></g><use width="30" height="18" xlink:href="#b" transform="matrix(.9 0 0 .9 11.6 13.7)"/><use width="30" height="18" xlink:href="#b" transform="matrix(.67 0 0 .75 39.2 27.5)"/></g></g></svg>